# xmcd
#
# Track frame offsets: 
#        150
#        21830
#        35562
#        52290
#        68117
#        81150
#        97755
#        111237
#        127140
#        140117
#
# Disc length: 2081 seconds
#
# Revision: 5
# Processed by: cddbd v1.5.2PL0 Copyright (c) Steve Scherf et al.
# Submitted via: ExactAudioCopy v1.0b1
#
DISCID=92081f0a
DTITLE=Various Artist - Greatest Country Hits Of The 80's 1984
DYEAR=1989
DGENRE=Country
TTITLE0=Willie Nelson - City Of New Orleans
TTITLE1=Merle Haggard - That's The Way Love Goes
TTITLE2=David Allan Coe - Mona Lisa Lost Her Smile
TTITLE3=Ricky Skaggs - Honey (Open That Door)
TTITLE4=Moe Bandy And Joe Stampley - Where's The Dress
TTITLE5=Exile - I Don't Want To Be A Memory
TTITLE6=Mickey Gilley - You've Really Got A Hold On Me
TTITLE7=B.J. Thomas - Two Car Garage
TTITLE8=Janie Frickie - Your Heart's Not In It
TTITLE9=Willie Nelson (With Julio Iglesias) - To All The Girls I've Lo
TTITLE9=ved Before
EXTD=
EXTT0=Willie Nelson
EXTT1=Merle Haggard
EXTT2=David Allan Coe
EXTT3=Ricky Skaggs
EXTT4=Moe Bandy and Joe Stampley
EXTT5=Exile
EXTT6=Mickey Gilley
EXTT7=B. J. Thomas
EXTT8=Janie Frickie
EXTT9=Willie Nelson and Julio Iglesias
PLAYORDER=
